<svg width="86" height="25" viewBox="0 0 86 25" fill="none" xmlns="http://www.w3.org/2000/svg">
<path d="M36.39 8.64H33.43L32.88 10H30.86L33.95 3H35.9L39 10H36.94L36.39 8.64ZM35.81 7.18L34.91 4.94L34.01 7.18H35.81ZM45.8813 10L45.8613 6.29L44.0613 9.31H43.1813L41.3913 6.39V10H39.5613V3H41.1913L43.6513 7.04L46.0513 3H47.6813L47.7013 10H45.8813ZM53.7923 8.64H50.8323L50.2823 10H48.2623L51.3523 3H53.3023L56.4023 10H54.3423L53.7923 8.64ZM53.2123 7.18L52.3123 4.94L51.4123 7.18H53.2123ZM62.8837 8.43V10H56.6137V8.76L60.1437 4.57H56.7037V3H62.7337V4.24L59.2037 8.43H62.8837ZM63.7508 3H65.7308V10H63.7508V3ZM73.7995 3V10H72.1695L69.0795 6.27V10H67.1395V3H68.7695L71.8595 6.73V3H73.7995ZM79.8861 6.35H81.6361V9.25C81.2361 9.53667 80.7761 9.75667 80.2561 9.91C79.7361 10.0633 79.2161 10.14 78.6961 10.14C77.9628 10.14 77.3028 9.98667 76.7161 9.68C76.1294 9.36667 75.6694 8.93333 75.3361 8.38C75.0028 7.82667 74.8361 7.2 74.8361 6.5C74.8361 5.8 75.0028 5.17333 75.3361 4.62C75.6694 4.06667 76.1328 3.63667 76.7261 3.33C77.3194 3.01667 77.9894 2.86 78.7361 2.86C79.3894 2.86 79.9761 2.97 80.4961 3.19C81.0161 3.41 81.4494 3.72667 81.7961 4.14L80.5361 5.28C80.0628 4.76 79.4961 4.5 78.8361 4.5C78.2361 4.5 77.7528 4.68333 77.3861 5.05C77.0194 5.41 76.8361 5.89333 76.8361 6.5C76.8361 6.88667 76.9194 7.23333 77.0861 7.54C77.2528 7.84 77.4861 8.07667 77.7861 8.25C78.0861 8.41667 78.4294 8.5 78.8161 8.5C79.1961 8.5 79.5528 8.42333 79.8861 8.27V6.35Z" fill="#7D7D7D"/>
<path d="M35.73 22L34.22 19.85C34.0333 19.8633 33.8867 19.87 33.78 19.87H32.05V22H31.05V15H33.78C34.6867 15 35.4 15.2167 35.92 15.65C36.44 16.0833 36.7 16.68 36.7 17.44C36.7 17.98 36.5667 18.44 36.3 18.82C36.0333 19.2 35.6533 19.4767 35.16 19.65L36.82 22H35.73ZM33.75 19.02C34.3833 19.02 34.8667 18.8833 35.2 18.61C35.5333 18.3367 35.7 17.9467 35.7 17.44C35.7 16.9333 35.5333 16.5467 35.2 16.28C34.8667 16.0067 34.3833 15.87 33.75 15.87H32.05V19.02H33.75ZM41.4756 22.08C40.769 22.08 40.1323 21.9267 39.5656 21.62C38.999 21.3067 38.5523 20.8767 38.2256 20.33C37.9056 19.7833 37.7456 19.1733 37.7456 18.5C37.7456 17.8267 37.9056 17.2167 38.2256 16.67C38.5523 16.1233 38.999 15.6967 39.5656 15.39C40.1323 15.0767 40.769 14.92 41.4756 14.92C42.1756 14.92 42.809 15.0767 43.3756 15.39C43.9423 15.6967 44.3856 16.1233 44.7056 16.67C45.0256 17.21 45.1856 17.82 45.1856 18.5C45.1856 19.18 45.0256 19.7933 44.7056 20.34C44.3856 20.88 43.9423 21.3067 43.3756 21.62C42.809 21.9267 42.1756 22.08 41.4756 22.08ZM41.4756 21.19C41.989 21.19 42.449 21.0733 42.8556 20.84C43.269 20.6067 43.5923 20.2867 43.8256 19.88C44.0656 19.4667 44.1856 19.0067 44.1856 18.5C44.1856 17.9933 44.0656 17.5367 43.8256 17.13C43.5923 16.7167 43.269 16.3933 42.8556 16.16C42.449 15.9267 41.989 15.81 41.4756 15.81C40.9623 15.81 40.4956 15.9267 40.0756 16.16C39.6623 16.3933 39.3356 16.7167 39.0956 17.13C38.8623 17.5367 38.7456 17.9933 38.7456 18.5C38.7456 19.0067 38.8623 19.4667 39.0956 19.88C39.3356 20.2867 39.6623 20.6067 40.0756 20.84C40.4956 21.0733 40.9623 21.19 41.4756 21.19ZM46.7141 15H47.7141V21.13H51.5041V22H46.7141V15ZM57.7316 21.13V22H52.6516V15H57.5916V15.87H53.6516V18.02H57.1616V18.87H53.6516V21.13H57.7316ZM62.0808 15C62.9874 15 63.7008 15.2167 64.2208 15.65C64.7408 16.0833 65.0008 16.68 65.0008 17.44C65.0008 18.2 64.7408 18.7967 64.2208 19.23C63.7008 19.6633 62.9874 19.88 62.0808 19.88H60.3508V22H59.3508V15H62.0808ZM62.0508 19.01C62.6841 19.01 63.1674 18.8767 63.5008 18.61C63.8341 18.3367 64.0008 17.9467 64.0008 17.44C64.0008 16.9333 63.8341 16.5467 63.5008 16.28C63.1674 16.0067 62.6841 15.87 62.0508 15.87H60.3508V19.01H62.0508ZM66.4699 15H67.4699V21.13H71.2599V22H66.4699V15ZM76.8967 20.25H73.1767L72.4067 22H71.3767L74.5467 15H75.5367L78.7167 22H77.6667L76.8967 20.25ZM76.5467 19.45L75.0367 16.02L73.5267 19.45H76.5467ZM82.021 19.58V22H81.031V19.56L78.251 15H79.321L81.561 18.69L83.811 15H84.801L82.021 19.58Z" fill="#7D7D7D"/>
<path d="M12.2978 0.18993C12.4311 -0.0633104 12.7952 -0.06331 12.9285 0.189931L25.1851 23.4811C25.3093 23.7171 25.1374 24 24.8698 24H20.7916C20.6588 24 20.5371 23.9264 20.4758 23.8092L12.9289 9.36804C12.796 9.11361 12.4303 9.11361 12.2974 9.36804L4.75047 23.8092C4.68919 23.9264 4.56746 24 4.43469 24H0.356455C0.0888768 24 -0.0830403 23.7171 0.0411368 23.4811L12.2978 0.18993Z" fill="#7D7D7D"/>
<path d="M16.5463 24C16.8139 24 16.9858 23.7171 16.8616 23.4812L12.9285 16.0052C12.7952 15.7519 12.4311 15.7519 12.2978 16.0052L8.36464 23.4812C8.2405 23.7171 8.41242 24 8.67998 24H16.5463Z" fill="#7D7D7D"/>
</svg>
