<svg width="144" height="137" viewBox="0 0 144 137" fill="none" xmlns="http://www.w3.org/2000/svg">
<path d="M70.2001 1.08419C70.9608 -0.361397 73.0392 -0.361395 73.7999 1.08419L143.765 134.038C144.474 135.385 143.493 137 141.965 137H118.685C117.927 137 117.233 136.58 116.883 135.911L73.8026 53.4759C73.0436 52.0235 70.9564 52.0235 70.1974 53.4759L27.1173 135.911C26.7675 136.58 26.0726 137 25.3147 137H2.03476C0.507339 137 -0.474022 135.385 0.234822 134.038L70.2001 1.08419Z" fill="white"/>
<path d="M94.4518 137C95.9791 137 96.9605 135.385 96.2518 134.038L73.8 91.3629C73.0394 89.9171 70.9606 89.9171 70.2 91.363L47.7482 134.038C47.0395 135.385 48.0209 137 49.5482 137H94.4518Z" fill="white"/>
</svg>
