<svg width="150" height="143" viewBox="0 0 150 143" fill="none" xmlns="http://www.w3.org/2000/svg">
<path d="M73.2001 4.08419C73.9608 2.6386 76.0392 2.63861 76.7999 4.08419L146.765 137.038C147.474 138.385 146.493 140 144.965 140H121.685C120.927 140 120.233 139.58 119.883 138.911L76.8026 56.4759C76.0436 55.0235 73.9564 55.0235 73.1974 56.4759L30.1173 138.911C29.7675 139.58 29.0726 140 28.3147 140H5.03476C3.50734 140 2.52598 138.385 3.23482 137.038L73.2001 4.08419Z" stroke="white" stroke-width="5"/>
<path d="M97.4518 140C98.9791 140 99.9605 138.385 99.2518 137.038L76.8 94.3629C76.0394 92.9171 73.9606 92.9171 73.2 94.363L50.7482 137.038C50.0395 138.385 51.0209 140 52.5482 140H97.4518Z" stroke="white" stroke-width="5"/>
</svg>
