<svg width="100%" height="100%" viewBox="0 0 40 40" fill="#F0402A" xmlns="http://www.w3.org/2000/svg">
<path d="M20 24C22.2091 24 24 22.2091 24 20C24 17.7909 22.2091 16 20 16C17.7909 16 16 17.7909 16 20C16 22.2091 17.7909 24 20 24Z" />
<path fill-rule="evenodd" clip-rule="evenodd" d="M18 2C18 0.895431 18.8954 0 20 0C21.1046 0 22 0.895431 22 2V6C22 6.04743 21.9984 6.09447 21.9951 6.14108C28.1304 7.01645 32.9835 11.8696 33.8589 18.0049C33.9055 18.0016 33.9526 18 34 18H38C39.1046 18 40 18.8954 40 20C40 21.1046 39.1046 22 38 22H34C33.9526 22 33.9055 21.9984 33.8589 21.9951C32.9835 28.1304 28.1304 32.9835 21.9951 33.8589C21.9984 33.9055 22 33.9526 22 34V38C22 39.1046 21.1046 40 20 40C18.8954 40 18 39.1046 18 38V34C18 33.9526 18.0016 33.9055 18.0049 33.8589C11.8696 32.9835 7.01645 28.1304 6.14108 21.9951C6.09447 21.9984 6.04743 22 6 22H2C0.895431 22 0 21.1046 0 20C0 18.8954 0.895431 18 2 18H6C6.04743 18 6.09447 18.0016 6.14108 18.0049C7.01645 11.8696 11.8696 7.01645 18.0049 6.14108C18.0016 6.09447 18 6.04743 18 6V2ZM20 30C25.5228 30 30 25.5228 30 20C30 14.4772 25.5228 10 20 10C14.4772 10 10 14.4772 10 20C10 25.5228 14.4772 30 20 30Z" />
</svg>
