<svg version="1.1" viewBox="0 0 24 24" xmlns="http://www.w3.org/2000/svg">
<path d="m7.2 19.2c-1.32 0-2.4 1.08-2.4 2.4s1.08 2.4 2.4 2.4 2.4-1.08 2.4-2.4-1.08-2.4-2.4-2.4zm-7.2-19.2v2.4h2.4l4.32 9.12-1.68 2.88c-0.12 0.36-0.24 0.84-0.24 1.2 0 1.32 1.08 2.4 2.4 2.4h14.4v-2.4h-13.92c-0.12 0-0.24-0.12-0.24-0.24v-0.12l1.08-2.04h8.88c0.96 0 1.68-0.48 2.04-1.2l4.32-7.8c0.24-0.24 0.24-0.36 0.24-0.6 0-0.72-0.48-1.2-1.2-1.2h-17.76l-1.08-2.4zm19.2 19.2c-1.32 0-2.4 1.08-2.4 2.4s1.08 2.4 2.4 2.4 2.4-1.08 2.4-2.4-1.08-2.4-2.4-2.4z" />
</svg>
