<svg fill="#F3502F" version="1.1" viewBox="0 0 50 46.463" xmlns="http://www.w3.org/2000/svg">
<path d="m25 0c-0.8097 0-1.4648 0.65517-1.4648 1.4648v4.3945c0 0.80967 0.6551 1.4648 1.4648 1.4648s1.4648-0.65518 1.4648-1.4648v-4.3945c0-0.80967-0.6551-1.4648-1.4648-1.4648z"/>
<path d="m17.246 9.2182-2.9297-2.9297c-0.5723-0.57217-1.4992-0.57217-2.0714 0-0.5722 0.57216-0.5722 1.4992 0 2.0714l2.9297 2.9296c0.5722 0.5722 1.4992 0.5722 2.0714 0 0.5721-0.5721 0.5721-1.4992 0-2.0713z"/>
<path d="m35.683 6.2885c0.5722-0.57217 1.4992-0.57217 2.0714 0 0.5721 0.57216 0.5721 1.4992 0 2.0714l-2.9297 2.9296c-0.5722 0.5722-1.4992 0.5722-2.0714 0-0.5721-0.5721-0.5721-1.4992 0-2.0713z"/>
<path d="m48.535 20.508h-4.4922v20.508h4.4922c0.8096 0 1.4648-0.6552 1.4648-1.4648v-17.578c0-0.8096-0.6552-1.4648-1.4648-1.4648z"/>
<path d="m0 21.973c0-0.8096 0.65517-1.4648 1.4648-1.4648h4.4922v20.508h-4.4922c-0.80967 0-1.4648-0.6552-1.4648-1.4648z"/>
<path d="m23.882 21.973c-1.1173 0-2.1215 0.6208-2.6207 1.6194l-4.4589 8.9206c0.7467 0.3275 1.5363 0.4935 2.3432 0.4935 2.2301 0 4.2371-1.243 5.237-3.2458l0.9642-1.9283h2.8353c0.7711 0 1.5263 0.3133 2.0713 0.8583l10.86 10.86v-17.578z"/>
<path d="m27.157 30.762h1.0242l10.405 10.405c-0.514 0.5274-1.1443 0.9387-1.892 1.1492l-12.51 3.9325c-1.4948 0.4998-3.2274 0.12-4.4303-1.0829l-4.1499-4.1499h-6.7177v-20.508h2.5835c0.5551 0 1.0623-0.3137 1.3106-0.8101l1.3097-2.6196c0.7447-1.4892 2.2665-2.4297 3.9315-2.4297h11.372c0.8097 0 1.4649 0.6552 1.4649 1.4648 0 1.0498-0.2507 2.031-0.6565 2.9297h-6.3216c-2.2199 0-4.2495 1.2544-5.242 3.2402l-5.1538 10.31c-0.3725 0.745-0.0426 1.6509 0.7156 1.9956 1.8644 0.8481 3.4368 1.5008 5.7057 1.3152 3.0837-0.2521 5.7822-2.2058 7.1659-4.973z"/>
</svg>
