<svg version="1.1" viewBox="0 0 12 7.5" xmlns="http://www.w3.org/2000/svg">
<path d="m6 0c-2.617 0-4.8853 1.5239-6 3.75 1.1147 2.2261 3.383 3.75 6 3.75 2.6169 0 4.8853-1.5239 6-3.75-1.1147-2.2261-3.3831-3.75-6-3.75zm2.9584 1.9887c0.70505 0.44969 1.3025 1.052 1.7512 1.7613-0.4487 0.70924-1.0462 1.3116-1.7512 1.7613-0.88587 0.56505-1.9089 0.86372-2.9584 0.86372-1.0495 0-2.0725-0.29867-2.9584-0.86372-0.705-0.44972-1.3024-1.0521-1.7512-1.7613 0.44874-0.70927 1.0462-1.3116 1.7512-1.7613 0.04592-0.0293 0.0923-0.05768 0.13897-0.08555-0.1167 0.32025-0.18057 0.66588-0.18057 1.0265 0 1.6568 1.3432 3 3 3 1.6568 0 3-1.3432 3-3 0-0.36064-0.06386-0.70627-0.18054-1.0265 0.0466 0.02786 0.09303 0.05627 0.13894 0.08557zm-4.0834 1.691c0.62133 0 1.125-0.50367 1.125-1.125s-0.50367-1.125-1.125-1.125-1.125 0.50367-1.125 1.125 0.50367 1.125 1.125 1.125z" clip-rule="evenodd" fill-rule="evenodd" />
</svg>
