<svg viewBox="0 0 59 49" xmlns="http://www.w3.org/2000/svg">
<path fill-rule="evenodd" clip-rule="evenodd" d="M35 42.6599C35 42.936 35.2239 43.1599 35.5 43.1599H48.411C48.6871 43.1599 48.911 43.3838 48.911 43.6599V46.3352C48.911 47.8044 50.1032 49 51.5683 49H55.0383C56.5034 49 57.6956 47.8044 57.6956 46.3352V33.6196C57.6956 31.7984 57.1343 28.946 56.4446 27.2615L56.1433 26.5255C56.0853 26.3837 56.1895 26.2284 56.3427 26.2284V26.2284C57.8078 26.2284 59 25.0328 59 23.5636V22.072C59.0002 20.8135 58.1345 19.8997 56.942 19.8997C56.7245 19.8997 56.5012 19.9311 56.2779 19.9925L54.1823 20.5714C53.9383 20.6388 53.6824 20.5132 53.5865 20.2788L51.1347 14.2887C50.3922 12.4755 48.198 11 46.2435 11H35.5C35.2239 11 35 11.2239 35 11.5V12.6272C35 12.9034 35.2239 13.1272 35.5 13.1272H44.9496C46.1187 13.1272 47.4384 14.0146 47.8825 15.0995L51.8462 24.7811C52.2899 25.8657 51.6968 26.7533 50.5277 26.7533H35.5C35.2239 26.7533 35 26.9772 35 27.2533V42.6599ZM51.5192 38.093C52.1034 38.093 52.5819 37.6136 52.5819 37.0272V33.4037C52.5819 32.8176 52.1034 32.3379 51.5192 32.3379H43.9898C43.4056 32.3379 42.927 32.8176 42.927 33.4037V37.0272C42.927 37.6133 43.4056 38.093 43.9898 38.093H51.5192Z" fill="#94A4BC"/>
<path fill-rule="evenodd" clip-rule="evenodd" d="M31 22.915C31 22.6388 30.7761 22.415 30.5 22.415H22.3838C22.1004 22.415 21.875 22.6528 21.875 22.9362V22.9362C21.875 25.9578 20.8016 28.8222 18.8743 31.0701C18.7949 31.1627 18.75 31.2803 18.75 31.4023V48.5C18.75 48.7761 18.9739 49 19.25 49H30.5C30.7761 49 31 48.7761 31 48.5V22.915ZM26.5625 35.9894C26.5625 36.2655 26.3386 36.4894 26.0625 36.4894H23.9375C23.6614 36.4894 23.4375 36.2655 23.4375 35.9894V30.7341C23.4375 30.458 23.6614 30.2341 23.9375 30.2341H26.0625C26.3386 30.2341 26.5625 30.458 26.5625 30.7341V35.9894Z" fill="#4A76B9"/>
<path d="M26.6151 11.5736C26.5804 11.5042 26.5624 11.4277 26.5624 11.3502V5.19147C26.5624 4.91533 26.7862 4.69147 27.0624 4.69147H27.6249C27.901 4.69147 28.1249 4.46762 28.1249 4.19147V2.06382C28.1249 1.78768 27.901 1.56382 27.6249 1.56382H27.0624C26.7862 1.56382 26.5624 1.33997 26.5624 1.06382V0.5C26.5624 0.223858 26.3385 0 26.0624 0H23.9374C23.6612 0 23.4374 0.223858 23.4374 0.5V1.06382C23.4374 1.33997 23.2135 1.56382 22.9374 1.56382H22.3749C22.0987 1.56382 21.8749 1.78768 21.8749 2.06382V4.19147C21.8749 4.46762 22.0987 4.69147 22.3749 4.69147H22.9374C23.2135 4.69147 23.4374 4.91533 23.4374 5.19147V11.3501C23.4374 11.4276 23.4193 11.5041 23.3847 11.5735L20.63 17.0877C20.5569 17.2341 20.5607 17.4067 20.6357 17.5522C20.8593 17.9863 21.0596 18.4472 21.2307 18.9376C21.3028 19.1443 21.4951 19.2871 21.714 19.2871H29.6599C30.0315 19.2871 30.2733 18.8961 30.1072 18.5637L26.6151 11.5736Z" fill="#4A76B9"/>
<path d="M11.0947 12.7662C10.9932 12.6741 10.9375 12.5427 10.9375 12.4057V7.27674C10.9375 7.00059 11.1614 6.77674 11.4375 6.77674H12C12.2761 6.77674 12.5 6.55288 12.5 6.27674V4.14909C12.5 3.87294 12.2761 3.64909 12 3.64909H11.4375C11.1614 3.64909 10.9375 3.42523 10.9375 3.14909V2.58526C10.9375 2.30912 10.7136 2.08526 10.4375 2.08526H8.3125C8.03636 2.08526 7.8125 2.30912 7.8125 2.58526V3.14909C7.8125 3.42523 7.58864 3.64909 7.3125 3.64909H6.75C6.47386 3.64909 6.25 3.87294 6.25 4.14909V6.27674C6.25 6.55288 6.47386 6.77674 6.75 6.77674H7.3125C7.58864 6.77674 7.8125 7.00059 7.8125 7.27674V12.4058C7.8125 12.5428 7.75676 12.6743 7.65524 12.7663C7.02914 13.3336 6.28303 13.8585 5.50595 14.4051C2.92397 16.2213 0 18.278 0 22.9362C0 24.4637 0.364901 25.9055 1.012 27.1799C1.15951 27.4704 1.54559 27.5182 1.77587 27.2878L13.6501 15.4034C13.8676 15.1857 13.8386 14.8253 13.5873 14.6477C13.4766 14.5693 13.3662 14.4917 13.2564 14.4144L13.2546 14.4131L13.2535 14.4124L13.2498 14.4098L13.2482 14.4087C12.4696 13.8608 11.722 13.3348 11.0947 12.7662Z" fill="#4A76B9"/>
<path d="M3.125 31.7765C3.125 31.5003 3.34886 31.2765 3.625 31.2765H15.125C15.4011 31.2765 15.625 31.5003 15.625 31.7765V35.468C15.625 35.7441 15.4011 35.968 15.125 35.968H3.625C3.34886 35.968 3.125 35.7441 3.125 35.468V31.7765Z" fill="#4A76B9"/>
<path d="M3.625 39.0956C3.34886 39.0956 3.125 39.3195 3.125 39.5956V48.4998C3.125 48.7759 3.34886 48.9998 3.625 48.9998H7.3125C7.58864 48.9998 7.8125 48.7759 7.8125 48.4998V43.2658C7.8125 42.4022 8.51211 41.702 9.375 41.702C10.2379 41.702 10.9375 42.4022 10.9375 43.2658V48.4999C10.9375 48.776 11.1614 48.9999 11.4375 48.9999H15.125C15.4011 48.9999 15.625 48.776 15.625 48.4999V39.5956C15.625 39.3195 15.4011 39.0956 15.125 39.0956H3.625Z" fill="#4A76B9"/>
<path d="M6.54111 28.1488C6.09576 28.1488 5.87263 27.6105 6.18741 27.2954L16.0907 17.3838C16.2905 17.1839 16.6173 17.1882 16.7995 17.4043C17.9413 18.7581 18.75 20.4873 18.75 22.9361C18.75 24.7696 18.2244 26.4798 17.3158 27.9248C17.227 28.0661 17.0703 28.1488 16.9034 28.1488H6.54111Z" fill="#4A76B9"/>
</svg>
