<svg version="1.1" viewBox="0 0 48.43 28.997" xmlns="http://www.w3.org/2000/svg">
<path d="m33.935 0c-3.743 0.001001-7.153 1.42-9.723 3.748-2.572-2.327-5.98-3.745-9.718-3.745h-0.093c-7.958 0.052-14.401 6.526-14.401 14.495 0 8.002 6.494 14.494 14.494 14.494 3.738 0 7.145-1.418 9.717-3.745-0.537-0.485-1.023-1.022-1.482-1.584h2.994c-0.452 0.554-0.945 1.072-1.472 1.552h-3e-3l1e-3 2e-3c-3e-3 0.0028-0.0061 0.0054-0.0092 0.0079l-0.0108 0.0084-0.0069 0.0055c-0.0031 0.0027-0.0062 0.0054-0.0093 0.0084l-8e-4 8e-4c2.571 2.331 5.985 3.75 9.729 3.749 8.006-2e-3 14.491-6.494 14.489-14.498v-7e-3c-2e-3 -8.004-6.493-14.492-14.495-14.492zm-11.041 5.246h2.754c0.408 0.491 0.785 1.01 1.125 1.552h-4.913c0.314-0.519 0.662-1.05 1.034-1.552zm-1.892 3.075h6.605c0.237 0.503 0.445 1.021 0.625 1.553h-8.013c0.0224-0.0426 0.0612-0.122 0.1149-0.2322l4e-3 -0.0082c0.1356-0.2783 0.364-0.74706 0.6641-1.3126zm-7.304 9.653h-1.72l1.024-5.37-2.355 5.37h-1.556l-0.287-5.334-1.024 5.334h-1.557l1.332-6.982h2.683l0.123 4.324 1.905-4.324h2.786zm6.084-3.017-0.369 2.017-0.061 0.361-0.041 0.288-0.021 0.194-0.02 0.154h-1.433l0.041-0.587c-0.429 0.468-1.024 0.685-1.802 0.685-0.922 0-1.557-0.633-1.557-1.549 0-1.382 1.106-2.19 3.01-2.19 0.184 0 0.43 0.017 0.696 0.044l0.0161-0.0725c0.0303-0.1369 0.0459-0.2071 0.0459-0.2965 0-0.375-0.308-0.515-1.106-0.515-0.492 0-1.045 0.059-1.413 0.157l-0.246 0.062-0.143 0.037 0.225-1.279c0.86-0.218 1.413-0.299 2.048-0.299 1.474 0 2.253 0.577 2.253 1.665 0 0.282-0.02 0.493-0.123 1.124zm3.422-2.802c1.412 0 2.314 0.803 2.314 2.062 0 0.421-0.062 0.828-0.207 1.404h-3.398c-0.021 0.087-0.021 0.126-0.021 0.18 0 0.657 0.512 0.992 1.495 0.992 0.615 0 1.168-0.11 1.782-0.36l-0.286 1.422c-0.574 0.154-1.147 0.229-1.741 0.229-1.925 0-2.929-0.873-2.929-2.546 0-1.947 1.27-3.381 2.991-3.383zm3.587 10.017h-5.143c-0.312-0.5-0.605-1.013-0.856-1.552h6.843c-0.251 0.537-0.532 1.053-0.844 1.552zm3.151-8.573c-0.451-0.052-0.901-0.083-1.25-0.083-0.554 0-0.84 0.156-0.84 0.461 0 0.266 0.082 0.33 0.799 0.618 0.879 0.345 1.229 0.802 1.229 1.581 0 1.296-0.84 1.895-2.684 1.895-0.224 0-0.531-0.017-0.941-0.047-0.205-0.015-0.368-0.031-0.472-0.052l-0.307-0.056-0.082-0.016 0.246-1.31c0.553 0.156 1.026 0.224 1.557 0.224 0.676 0 0.983-0.158 0.983-0.512 0-0.26-0.103-0.344-0.799-0.627-0.921-0.371-1.331-0.867-1.331-1.583 0-1.049 0.676-1.922 2.602-1.922 0.41 0 1.086 0.05 1.535 0.112zm2.685 3.104c0.183 0 0.326-0.018 0.449-0.055l-0.225 1.26c-0.471 0.129-0.839 0.186-1.229 0.186-0.881 0-1.352-0.443-1.352-1.248 0-0.1586 0.0196-0.327 0.0404-0.5052l6e-4 -0.0048 0.103-0.559 0.081-0.449 0.799-4.336h1.699l-0.245 1.304h0.88l-0.246 1.382h-0.881l-0.45 2.369c-0.021 0.103-0.021 0.181-0.021 0.234 0 0.295 0.185 0.42 0.597 0.422zm4.189-2.809c-0.819 0-1.084 0.61-1.699 4.083h-1.721l1.045-5.68h1.557l-0.164 0.862c0.533-0.671 0.941-0.923 1.495-0.923 0.062 0 0.124 6e-3 0.185 0.014 0 0.0016 0.0184 0.0056 0.0485 0.0121l7e-3 0.0015c0.0246 0.0053 0.0558 0.012 0.0905 0.0204 0.0038 0.0012 0.0075 0.0021 0.0121 0.0032 0.0199 0.0048 0.0551 0.0134 0.1719 0.0588l-0.612 1.605-0.205-0.042c-0.082-0.01-0.143-0.015-0.211-0.015zm3.039 4.232c-1.95 0-2.726-1.178-2.726-2.619 0-2.011 1.331-3.376 3.379-3.376 1.784 0 2.726 1.122 2.726 2.562 0 0.353 0 0.377-0.041 0.707-0.267 1.889-1.578 2.728-3.338 2.726zm3.522-0.152c-0.246 0-0.451-0.199-0.451-0.445 0-0.242 0.205-0.441 0.451-0.441s0.451 0.199 0.451 0.441c0 0.247-0.205 0.445-0.451 0.445zm0.04-0.5597c1e-3 -9e-3 -0.04-9e-3 -0.06-9e-3h-0.043v0.101h0.062s0.021 0 0.041-8e-3c0.021-9e-3 0.021-0.028 0.021-0.045 0-0.015 0-0.031-0.021-0.039zm-2.949-3.8933c-0.881 0-1.413 1.035-1.413 1.947 0 0.772 0.368 1.29 0.983 1.278 0.37 0 1.167-0.509 1.311-1.392 0.04-0.207 0.061-0.434 0.061-0.681 0-0.592-0.245-1.154-0.942-1.152zm-18.391 0.9541c0.164-0.658 0.553-1.019 1.106-1.019 0.512 0 0.799 0.268 0.799 0.729v0.294zm-4.446 0.9483c-0.961-1e-3 -1.453 0.29-1.453 0.864 0 0.353 0.226 0.579 0.614 0.579 0.697 0 1.188-0.582 1.229-1.422-0.185-0.019-0.267-0.021-0.39-0.021z" />
</svg>
