<svg version="1.1" viewBox="0 0 48.428 28.997" xml:space="preserve" xmlns="http://www.w3.org/2000/svg">



<g transform="translate(0 -9.716)">
	
		<path d="m33.933 9.716c-3.741 1e-3 -7.151 1.419-9.721 3.748-2.572-2.326-5.98-3.745-9.717-3.745h-0.093c-7.958 0.052-14.402 6.526-14.402 14.495 0 8.001 6.494 14.494 14.494 14.494 3.737 0 7.145-1.417 9.716-3.745-0.537-0.485-1.023-1.022-1.482-1.584h2.993c-0.451 0.553-0.943 1.071-1.472 1.553h-2e-3c-0.012 0.013-0.025 0.021-0.037 0.032 2.573 2.33 5.985 3.75 9.728 3.749 8.005-3e-3 14.492-6.495 14.49-14.499v-7e-3c1e-3 -8.004-6.49-14.493-14.495-14.491zm-11.039 5.245h2.755c0.406 0.492 0.783 1.01 1.125 1.552h-4.915c0.317-0.518 0.665-1.051 1.035-1.552zm-1.891 3.074h6.607c0.235 0.502 0.443 1.021 0.625 1.553h-8.015c0.08-0.15 0.36-0.754 0.783-1.553zm-15.086 9.871 0.879-5.542-1.983 5.542h-1.063l-0.138-5.542-0.939 5.542h-1.489l1.234-7.35h2.252l0.079 4.51 1.521-4.51h2.443l-1.217 7.35zm5.265-0.012 0.051-0.587c-0.024 3e-3 -0.494 0.709-1.583 0.709-0.57 0-1.49-0.311-1.49-1.663 0-1.719 1.402-2.289 2.737-2.289 0.21 0 0.663 0.038 0.663 0.038s0.051-0.105 0.051-0.389c0-0.467-0.42-0.531-0.995-0.531-1.013 0-1.682 0.271-1.682 0.271l0.224-1.33s0.812-0.34 1.869-0.34c0.547 0 2.12 0.058 2.12 1.861l-0.606 4.25zm5.743-1.872c0 2.051-1.987 1.963-2.334 1.963-1.295 0-1.695-0.179-1.732-0.189l0.206-1.35c2e-3 -0.012 0.65 0.235 1.371 0.235 0.416 0 0.956-0.041 0.956-0.538 0-0.744-1.932-0.566-1.932-2.333 0-1.559 1.158-2.015 2.3-2.015 0.882 0 1.424 0.121 1.424 0.121l-0.195 1.362s-0.837-0.069-1.054-0.069c-0.549 0-0.848 0.12-0.848 0.504-1e-3 0.772 1.838 0.394 1.838 2.309zm2.386 0.538c0.137 0 0.292-0.047 0.398-0.047l-0.193 1.311c-0.155 0.043-0.594 0.199-1.157 0.203-0.719 6e-3 -1.23-0.396-1.23-1.308 0-0.612 0.877-5.655 0.911-5.688h1.543l-0.157 0.902h0.77l-0.197 1.453h-0.817l-0.434 2.677c-0.033 0.213 0.026 0.497 0.563 0.497zm3.394-4.797c1.694 0 2.201 1.24 2.201 2.257 0 0.407-0.204 1.407-0.204 1.407h-3.136s-0.29 1.235 1.367 1.235c0.777 0 1.639-0.38 1.639-0.38l-0.272 1.487s-0.498 0.254-1.63 0.254c-1.227 0-2.666-0.519-2.666-2.699 1e-3 -1.889 1.149-3.561 2.701-3.561zm4.087 10.123h-5.142c-0.313-0.5-0.605-1.013-0.856-1.552h6.843c-0.252 0.536-0.534 1.054-0.845 1.552zm-0.345-3.969h-1.584l0.963-5.982h1.437l-0.138 0.867s0.512-0.943 1.203-0.943c0.201 0 0.298 0.02 0.298 0.02-0.205 0.418-0.386 0.801-0.574 1.79-1.072-0.38-1.154 1.693-1.605 4.248zm6.035-0.093s-0.83 0.212-1.35 0.212c-1.842 0-2.777-1.271-2.777-3.196 0-2.903 1.733-4.449 3.514-4.449 0.805 0 1.738 0.378 1.738 0.378l-0.252 1.635s-0.631-0.441-1.416-0.441c-1.05 0-1.992 1.002-1.992 2.823 0 0.897 0.439 1.733 1.535 1.733 0.521 0 1.276-0.379 1.276-0.379zm3.715 0.073 0.052-0.591c-0.025 3e-3 -0.495 0.709-1.583 0.709-0.57 0-1.49-0.311-1.49-1.663 0-1.719 1.402-2.289 2.736-2.289 0.21 0 0.664 0.038 0.664 0.038s0.052-0.104 0.052-0.388c0-0.467-0.42-0.531-0.996-0.531-1.013 0-1.681 0.271-1.681 0.271l0.224-1.33s0.812-0.34 1.87-0.34c0.546 0 2.12 0.058 2.119 1.861l-0.606 4.25c-1e-3 3e-3 -1.361 3e-3 -1.361 3e-3zm3.207 0.02h-1.584l0.963-5.982h1.438l-0.138 0.867s0.513-0.943 1.204-0.943c0.201 0 0.297 0.02 0.297 0.02-0.204 0.418-0.387 0.801-0.574 1.79-1.073-0.38-1.155 1.693-1.606 4.248zm4.729-0.016 0.067-0.551s-0.512 0.646-1.438 0.646c-1.283 0-1.912-1.239-1.912-2.505 0-1.958 1.178-3.665 2.592-3.665 0.91 2e-3 1.491 0.805 1.491 0.805l0.334-2.065 1.547-3e-3 -1.18 7.338zm3.052-0.207c-0.041 0.074-0.099 0.131-0.173 0.175-0.073 0.041-0.151 0.062-0.233 0.062-0.08 0-0.157-0.021-0.231-0.062-0.074-0.044-0.132-0.101-0.173-0.175-0.042-0.075-0.062-0.151-0.062-0.232 0-0.082 0.021-0.16 0.062-0.234s0.102-0.134 0.175-0.174c0.076-0.041 0.151-0.062 0.229-0.062 0.08 0 0.156 0.021 0.23 0.062 0.076 0.041 0.134 0.098 0.176 0.174 0.043 0.075 0.062 0.153 0.062 0.234s-0.02 0.158-0.062 0.232z"/>

	

</g>

<g transform="translate(0 -9.716)">
	
		<path d="m47.061 32.117c-0.01-7e-3 -0.019-0.018-0.035-0.024s-0.041-9e-3 -0.08-9e-3h-0.094v0.15h0.1c0.047 0 0.078-4e-3 0.096-0.021 0.017-0.014 0.025-0.031 0.025-0.055 0-0.016-4e-3 -0.027-0.012-0.041z"/>

	

</g>

<g transform="translate(0 -9.716)">
	
		<path d="m47.384 32.027c-0.043-0.078-0.102-0.133-0.177-0.174s-0.151-0.062-0.229-0.062c-0.08 0-0.156 0.021-0.23 0.062s-0.135 0.098-0.176 0.174c-0.043 0.074-0.062 0.152-0.062 0.232s0.021 0.159 0.062 0.232c0.043 0.074 0.101 0.134 0.174 0.175 0.074 0.041 0.152 0.062 0.234 0.062 0.08 0 0.158-0.021 0.231-0.062s0.132-0.101 0.173-0.175c0.042-0.073 0.062-0.151 0.062-0.232s-0.021-0.159-0.062-0.232zm-0.288 0.492-0.044-0.079c-0.035-0.062-0.064-0.103-0.086-0.119-0.014-0.01-0.036-0.018-0.064-0.018h-0.047v0.215h-0.082v-0.505h0.174c0.06 0 0.103 5e-3 0.127 0.015 0.027 0.01 0.05 0.024 0.064 0.049 0.016 0.023 0.023 0.048 0.023 0.074 0 0.037-0.014 0.068-0.039 0.097-0.026 0.026-0.062 0.043-0.105 0.046 0.018 6e-3 0.032 0.016 0.043 0.027 0.021 0.02 0.045 0.053 0.075 0.099l0.062 0.099z"/>

	

</g>

<g transform="translate(0 -9.716)">
	
		<path d="m11.022 25.211c-1.131 0-1.36 0.508-1.36 0.931 0 0.218 0.125 0.582 0.604 0.582 0.929 0 1.122-1.218 1.092-1.477-0.044-9e-3 -0.072-0.035-0.336-0.036z"/>

	

</g>

<g transform="translate(0 -9.716)">
	
		<path d="m22.711 23.144c-0.841 0-1.003 0.957-1.003 1.058h1.713c0-0.077 0.161-1.058-0.71-1.058z"/>

	

</g>

<g transform="translate(0 -9.716)">
	
		<path d="m43.709 23.311c-0.679 0-1.216 0.788-1.215 1.985 0 0.73 0.26 1.198 0.816 1.198 0.836 0 1.239-1.091 1.239-1.904 0-0.897-0.285-1.279-0.84-1.279z"/>

	

</g>

<g transform="translate(0 -9.716)">
	
		<path d="m47.115 27.268c-0.035-0.062-0.084-0.11-0.146-0.145s-0.125-0.052-0.191-0.052c-0.064 0-0.129 0.018-0.191 0.052-0.062 0.032-0.111 0.082-0.146 0.145s-0.053 0.13-0.053 0.195c0 0.067 0.018 0.133 0.051 0.194 0.037 0.062 0.084 0.109 0.146 0.146 0.062 0.034 0.126 0.054 0.193 0.054s0.133-0.02 0.193-0.054c0.062-0.035 0.11-0.083 0.146-0.146 0.035-0.062 0.051-0.127 0.051-0.194 0-0.066-0.018-0.132-0.053-0.195zm-0.217 0.452-0.045-0.078c-0.035-0.063-0.063-0.103-0.084-0.118-0.017-0.013-0.037-0.019-0.066-0.019h-0.046v0.214h-0.084v-0.504h0.175c0.059 0 0.103 5e-3 0.128 0.016 0.025 9e-3 0.047 0.026 0.064 0.048s0.023 0.047 0.023 0.074c0 0.037-0.014 0.068-0.04 0.096-0.026 0.029-0.062 0.041-0.104 0.046 0.02 8e-3 0.033 0.017 0.043 0.026 0.021 0.021 0.045 0.051 0.074 0.099l0.062 0.1h-0.1z"/>

	

</g>

<g transform="translate(0 -9.716)">
	
		<path d="m36.039 25.211c-1.131 0-1.36 0.508-1.36 0.931 0 0.218 0.124 0.582 0.604 0.582 0.929 0 1.121-1.218 1.092-1.477-0.045-9e-3 -0.073-0.035-0.336-0.036z"/>

	

</g>

<g transform="translate(0 -9.716)">
	
		<path d="m46.864 27.318c-8e-3 -0.01-0.019-0.018-0.034-0.025-0.017-5e-3 -0.042-0.01-0.082-0.01v1e-3h-0.091v0.152h0.099c0.047 0 0.078-6e-3 0.097-0.021 0.015-0.015 0.024-0.034 0.024-0.056 0-0.017-4e-3 -0.027-0.013-0.041z"/>

	

</g>































</svg>
