<svg viewBox="0 0 512 459.49" xmlns="http://www.w3.org/2000/svg">
<path d="m479.18 65.641h-446.36c-18.131 0-32.821-14.69-32.821-32.82s14.69-32.821 32.821-32.821h446.36c18.13 0 32.82 14.69 32.82 32.821s-14.69 32.82-32.82 32.82z"/>
<path d="m295.38 262.56h-262.56c-18.131 0-32.821-14.691-32.821-32.821s14.69-32.821 32.821-32.821h262.56c18.13 0 32.821 14.69 32.821 32.821s-14.691 32.821-32.821 32.821z"/>
<path d="m479.18 262.56h-52.513c-18.13 0-32.821-14.69-32.821-32.821s14.69-32.821 32.821-32.821h52.513c18.13 0 32.82 14.69 32.82 32.821s-14.69 32.821-32.82 32.821z" fill="#666"/>
<path d="m479.18 459.49h-446.36c-18.131 0-32.821-14.691-32.821-32.821s14.69-32.821 32.821-32.821h446.36c18.13 0 32.82 14.69 32.82 32.821 0 18.13-14.69 32.821-32.82 32.821z" style=""/>































</svg>
