<svg fill="#ED472D" viewBox="0 0 34.616 50" xmlns="http://www.w3.org/2000/svg">
<path d="m17.308 34.614c2.6446 0 4.9078-0.9415 6.7907-2.8237 1.8826-1.8822 2.824-4.1465 2.824-6.7908v-15.384c0-2.6444-0.9407-4.9078-2.824-6.7909-1.8829-1.8827-4.1461-2.8248-6.7907-2.8248-2.6443 0-4.9078 0.94204-6.7908 2.8248-1.8831 1.8828-2.8245 4.1465-2.8245 6.7909v15.384c0 2.6442 0.94183 4.9086 2.8245 6.7908s4.1465 2.8237 6.7908 2.8237z"/>
<path d="m34.044 19.802c-0.3795-0.3807-0.8312-0.5711-1.3521-0.5711-0.5203 0-0.971 0.1904-1.352 0.5711-0.3803 0.3805-0.5706 0.8312-0.5706 1.3518v3.8464c0 3.7061-1.3174 6.8759-3.9517 9.5101-2.6334 2.6343-5.8037 3.9514-9.5099 3.9514-3.706 0-6.876-1.3171-9.5104-3.9514-2.6341-2.6334-3.951-5.8039-3.951-9.5101v-3.8464c0-0.5206-0.19039-0.9713-0.57085-1.3518-0.38067-0.3807-0.8309-0.5711-1.3521-0.5711s-0.97193 0.1904-1.3524 0.5711c-0.38078 0.3805-0.57106 0.8312-0.57106 1.3518v3.8464c0 4.4271 1.4776 8.2784 4.432 11.553 2.9545 3.275 6.6054 5.1529 10.953 5.6333v3.9668h-7.6922c-0.52086 0-0.97151 0.1906-1.3521 0.5712-0.38067 0.3804-0.57105 0.8313-0.57105 1.3521 0 0.52 0.19038 0.9717 0.57105 1.3521 0.38057 0.3803 0.83122 0.5712 1.3521 0.5712h19.23c0.5208 0 0.9721-0.1908 1.3521-0.5712 0.3811-0.3803 0.5716-0.832 0.5716-1.3521 0-0.5207-0.1905-0.9716-0.5716-1.3521-0.3799-0.3806-0.8312-0.5712-1.3521-0.5712h-7.6912v-3.9668c4.3465-0.4804 7.997-2.3583 10.952-5.6333 2.9549-3.2749 4.4329-7.1262 4.4329-11.553v-3.8464c0-0.5205-0.1908-0.9708-0.572-1.3518z"/>
</svg>
