<svg version="1.1" viewBox="0 0 110.77 49.773" xmlns="http://www.w3.org/2000/svg">
<path d="m106.11 30.918h-1.738v6.885h1.707v-2.798h0.9l1.802 2.798h1.994l-2.445-3.57v-0.033l2.188-3.281h-1.898l-1.673 2.638h-0.837zm-3.121 3.09c0-1.802-1.094-3.25-3.056-3.25-2.059 0-3.507 1.48-3.507 3.635 0 1.963 1.416 3.604 3.7 3.604 0.997 0 2.059-0.387 2.767-0.997l-0.676-1.223c-0.547 0.418-1.255 0.74-1.962 0.74-1.03 0-1.963-0.644-2.06-1.834h4.73c0.037-0.2232 0.059-0.4487 0.064-0.675zm-3.12-1.963c0.772 0 1.383 0.547 1.383 1.448h-3.057c0.161-0.869 0.804-1.448 1.674-1.448zm-9.846 1.029c0 2.446-0.611 3.153-1.448 3.282v1.511c2.285-0.064 3.089-1.802 3.089-4.794v-0.772h1.673v5.502h1.706v-6.884h-5.02zm-2.252 0.934c0-1.802-1.094-3.25-3.056-3.25-2.06 0-3.507 1.48-3.507 3.635 0 1.963 1.415 3.604 3.7 3.604 0.997 0 2.059-0.387 2.767-0.997l-0.676-1.223c-0.547 0.418-1.255 0.74-1.962 0.74-1.03 0-1.963-0.644-2.06-1.834h4.73c0.0372-0.2232 0.0586-0.4487 0.064-0.675zm-3.121-1.963c0.772 0 1.384 0.547 1.384 1.448h-3.057c0.161-0.869 0.805-1.448 1.673-1.448zm-12.387-1.127h-1.577v6.885h9.17v-6.884h-1.641v5.405h-2.156v-5.405h-1.64v5.405h-2.156zm-2.992 3.443c0-2.091-1.706-3.603-3.796-3.603-2.092 0-3.765 1.48-3.733 3.603 0 2.124 1.673 3.604 3.765 3.604 2.091 0 3.764-1.48 3.764-3.604zm-1.737-0.032c0 1.287-0.933 2.156-2.059 2.156-1.127 0-2.027-0.869-2.027-2.156 0-1.286 0.901-2.156 2.026-2.156 1.127 0 2.06 0.901 2.06 2.156zm-13.224-6.113v9.587h1.738v-4.183h1.254l2.317 4.183h1.963l-2.864-4.986v-0.032l2.703-4.569h-1.899l-2.252 3.893h-1.255v-3.893zm-54.309-6.081c0 12.226 9.909 22.136 22.136 22.136 1.5065 0 3.0049-0.1313 4.6512-0.2755 1.9053-0.1668 4.0073-0.3508 6.5448-0.3685 4.215 0 8.848 1.48 13.931 5.985 0.515 0.4499 1.19-0.129 0.74-0.676-4.987-6.338-9.62-7.528-14.253-8.558-5.662-1.2551-8.558-4.408-10.585-7.915-0.386-0.708-0.579-0.579-0.612 0.322-0.0365 1.3257 0.0607 2.6517 0.29 3.958h-0.675c-8.076 0-14.64-6.564-14.64-14.64s6.564-14.64 14.639-14.64c8.076 0 14.64 6.564 14.64 14.64 0 0.579-0.033 1.158-0.097 1.705-1.094-0.193-3.185-0.225-4.665-0.096-0.547 0.064-0.483 0.321-0.064 0.386 4.826 0.9 8.14 3.893 8.912 9.33 0.032 0.129 0.193 0.161 0.258 0.065 1.962-3.314 3.12-7.208 3.12-11.358 0-12.225-9.91-22.135-22.136-22.135-12.225 0-22.135 9.909-22.135 22.135zm35.005 13.513c-0.515-0.45-1.094-0.675-1.609-0.675-0.45 0-0.804 0.16-1.03 0.45-0.578 0.707-0.321 1.9949 0.58 2.767 0.386 0.354 0.965 0.547 1.512 0.547s1.029-0.225 1.319-0.579c0.515-0.708 0.225-1.673-0.772-2.51zm4.504-2.188c-0.064-0.547-0.386-1.801-1.223-2.123-0.419-0.1611-0.772-0.033-0.932 0.257-0.258 0.451-0.065 1.319 0.418 2.092 0.482 0.772 0.933 1.158 1.255 1.158s0.611-0.386 0.482-1.384zm32.399-9.459c0.29 0 0.451-0.321 0.258-0.546v-1e-3l-2.703-3.153c0.901-1.415 1.416-3.088 1.416-4.858 0-4.955-4.022-8.977-8.977-8.977-4.954 0-8.976 4.022-8.976 8.977s4.022 8.977 8.976 8.977c1.769 0 3.443-0.548 4.859-1.448l0.675 0.836c0.0501 0.0621 0.1139 0.1119 0.1864 0.1453 0.0725 0.0335 0.1518 0.0498 0.2316 0.0477zm-9.556-6.306 1.77 2.156c-0.675 0.354-1.448 0.579-2.22 0.547-2.734 0-4.73-2.285-4.73-4.955s1.996-4.987 4.73-4.987c2.735 0 4.73 2.317 4.73 4.987 0 0.579-0.097 1.158-0.29 1.673h-3.732c-0.289 0-0.45 0.354-0.258 0.579zm47.875-10.36c-0.032-0.257-0.225-0.45-0.45-0.45h-3.314c-0.059-0.00137-0.119 0.00933-0.174 0.03146s-0.105 0.05523-0.147 0.09729-0.075 0.09222-0.098 0.14743c-0.022 0.05522-0.032 0.11435-0.031 0.17382v16.248c-1e-3 0.0594 9e-3 0.1186 0.031 0.1738 0.023 0.0552 0.056 0.1053 0.098 0.1474s0.092 0.0752 0.147 0.0973 0.115 0.0328 0.174 0.0315h3.314c0.059 0.0013 0.119-0.0094 0.174-0.0315s0.105-0.0552 0.147-0.0973 0.075-0.0922 0.098-0.1474c0.022-0.0552 0.032-0.1144 0.031-0.1738zm-5.598-0.257c-0.16-0.129-0.321-0.193-0.45-0.193h-3.701c-0.095 0.00184-0.187 0.034-0.262 0.09177-0.075 0.05776-0.13 0.13809-0.156 0.22923l-2.928 9.62-3.218-9.62c-0.064-0.193-0.225-0.29001-0.418-0.29001h-2.606c-0.0905 0.00161-0.1786 0.03001-0.253 0.08163s-0.1318 0.12413-0.165 0.20838l-3.218 9.62-2.927-9.62c-0.065-0.193-0.226-0.321-0.419-0.321h-3.7c-0.128 0-0.289 0.064-0.354 0.193-0.096 0.128-0.096 0.257-0.064 0.385l5.47 16.28c0.064 0.194 0.225 0.29 0.418 0.29h2.96c0.0905-0.0016 0.1786-0.0301 0.253-0.0817s0.1318-0.1241 0.165-0.2083l3.185-9.49 3.187 9.491c0.064 0.193 0.225 0.29 0.418 0.29h2.96c0.0905-0.0016 0.1786-0.0301 0.253-0.0817s0.1318-0.1241 0.165-0.2083l5.47-16.28c0.032-0.129 0.032-0.29-0.065-0.386zm-26.318 16.505v-16.248c0.0014-0.05947-0.0093-0.1186-0.0315-0.17382-0.0221-0.05521-0.0552-0.10537-0.0973-0.14743-0.042-0.04206-0.0922-0.07516-0.1474-0.09729s-0.1143-0.03283-0.1738-0.03146h-3.314c-0.0595-0.00137-0.1186 0.00933-0.1738 0.03146s-0.1054 0.05523-0.1474 0.09729c-0.0421 0.04206-0.0752 0.09222-0.0973 0.14743-0.0222 0.05522-0.0329 0.11435-0.0315 0.17382v16.248c-0.0014 0.0594 0.0093 0.1186 0.0315 0.1738 0.0221 0.0552 0.0552 0.1053 0.0973 0.1474 0.042 0.0421 0.0922 0.0752 0.1474 0.0973s0.1143 0.0328 0.1738 0.0315h3.314c0.0595 0.0013 0.1186-0.0094 0.1738-0.0315s0.1054-0.0552 0.1474-0.0973c0.0421-0.0421 0.0752-0.0922 0.0973-0.1474 0.0222-0.0552 0.0329-0.1144 0.0315-0.1738z" />
</svg>
