<svg fill="none" version="1.1" viewBox="0 0 84.522 15.939" xmlns="http://www.w3.org/2000/svg">
<g transform="translate(-.72607 -.060913)" clip-path="url(#clip0)">
<path d="m0.77274 7.2024 5.0247 2.8846 10.661-6.1298c0.6009 1.1707 0.9098 2.4693 0.9005 3.7851 0 2.2055-0.8761 4.3206-2.4356 5.8801s-3.6747 2.4356-5.8801 2.4356c-2.2055 0-4.3206-0.8761-5.8801-2.4356-1.5595-1.5595-2.4356-3.6746-2.4356-5.8801-0.007411-0.18112 0.007646-0.36247 0.044829-0.53989zm15.234-4.0326c-0.1813-0.24753-0.3606-0.49507-0.5185-0.74455l-9.6908 5.5666-4.6778-2.6819c-0.10736 0.28939-0.17298 0.59259-0.1949 0.90047l4.9175 2.8476zm54.8 7.4591h0.0702v-0.0156l0.0234 0.2924h-2.8399v-0.271c0.0625-3e-4 0.124-0.0157 0.1794-0.0448 0.077-0.0113 0.1468-0.0518 0.1949-0.113 0.0682-0.0156 0.113-0.0819 0.113-0.195 0.0384-0.1161 0.0536-0.2386 0.0448-0.36053v-6.6698c0-0.09073-0.0134-0.15632-0.0256-0.21567-0.01-0.04899-0.0192-0.0938-0.0192-0.14491-0.0285-0.06987-0.0666-0.13546-0.113-0.19491-0.0146-0.04183-0.0733-0.06499-0.1729-0.10432l-0.022-0.00873c-0.068 0-0.1031-0.01676-0.1304-0.02979-0.0174-0.00827-0.0315-0.01504-0.049-0.01504v-0.27092h2.8321v0.25728c-0.0628-0.00195-0.1249 0.01357-0.1794 0.04483-0.0699 0.02836-0.1355 0.06641-0.1949 0.11305-0.0682 0.01559-0.113 0.08186-0.113 0.1949-0.0398 0.11579-0.0551 0.23858-0.0448 0.36058v2.793h3.3173v-2.7794c0-0.09073-0.0135-0.15632-0.0256-0.21567-0.0101-0.04899-0.0192-0.0938-0.0192-0.14491-0.0285-0.0699-0.0665-0.1355-0.1131-0.19491-0.0125-0.0412-0.0712-0.06429-0.1683-0.10255l-0.0266-0.0105c-0.0679 0-0.1031-0.01676-0.1304-0.02979-0.0173-0.00827-0.0315-0.01504-0.0489-0.01504v-0.27092h2.793v0.22999c-0.0625 3.5e-4 -0.124 0.01573-0.1793 0.04483-0.0699 0.02848-0.1355 0.06652-0.1949 0.11305-0.0682 0.01559-0.113 0.08186-0.113 0.19491-0.0401 0.11573-0.0553 0.23857-0.0449 0.36058v6.6814c0 0.09073 0.0135 0.15637 0.0256 0.21567 0.0101 0.049 0.0193 0.0938 0.0193 0.1449 0.0282 0.07 0.0663 0.1356 0.113 0.1949 0.0125 0.0412 0.0712 0.0643 0.1683 0.1026l0.0266 0.0105c0.0679 0 0.1031 0.0167 0.1304 0.0298 0.0173 0.0082 0.0315 0.015 0.0489 0.015v0.2709h-2.8398v-0.2709c0.0625-4e-4 0.124-0.0157 0.1793-0.0448 0.0771-0.0114 0.1468-0.0518 0.1949-0.1131 0.0683-0.0156 0.1131-0.0818 0.1131-0.1949 0.04-0.1157 0.0553-0.2386 0.0448-0.36057v-3.29h-3.3583v3.3134c0 0.09068 0.0135 0.15628 0.0257 0.21568 0.01 0.049 0.0192 0.0938 0.0192 0.1449 0.0285 0.0699 0.0665 0.1355 0.113 0.1949 0.0146 0.0418 0.0732 0.065 0.1729 0.1043l0.022 0.0088c0.0694 0 0.105 0.0168 0.1325 0.0299 0.0174 0.0082 0.0315 0.0149 0.0488 0.0149zm-9.7454-0.76603c0.113-0.49506 0.3157-1.1948 0.5847-2.0738h2.7716l0.3898 1.1266c0.1627 0.40952 0.2931 0.83116 0.3898 1.2611 0.094 0.2461 0.1544 0.5037 0.1794 0.766h2.2083c-0.0521-0.0826-0.0976-0.1801-0.1476-0.2875l-1e-4 -3e-4c-0.0587-0.1257-0.1236-0.265-0.2129-0.41-0.1894-0.39507-0.3547-0.80122-0.4951-1.2162l-2.0036-5.6796c-0.0828-0.20343-0.1436-0.41514-0.1813-0.63151-0.0271-0.10839-0.0378-0.20111-0.0472-0.28247l-1e-4 -2.3e-4c-0.0061-0.05308-0.0117-0.10149-0.0209-0.14609h-2.4773v0.27092c0.0174 0 0.0316 0.00676 0.0489 0.01504 0.0273 0.01302 0.0625 0.02979 0.1304 0.02979l0.0221 0.00873c0.0996 0.03932 0.1583 0.06249 0.1728 0.10431 0.0466 0.05938 0.0847 0.12499 0.1131 0.19491v0.17932c0.0019 0.19358-0.0366 0.38543-0.1131 0.56328l-1.3975 3.4245c-0.1343 0.34276-0.2687 0.66542-0.3887 0.95365-0.1011 0.24274-0.192 0.46122-0.2642 0.64654-0.0715 0.18368-0.1523 0.36736-0.2275 0.53854l-2e-4 4.6e-4 -1e-4 2.7e-4 -1e-4 1.9e-4 -2e-4 3.5e-4 -1e-4 3.7e-4 -4e-4 7.4e-4 -2e-4 5.5e-4c-0.0903 0.20548-0.1726 0.3928-0.2215 0.54027-0.0311 0.06274-0.0611 0.12422-0.0902 0.1839-0.0966 0.19798-0.1835 0.37608-0.2703 0.51388-0.0903 0.1457-0.173 0.2959-0.2476 0.4502h1.5768c0.0526-0.3529 0.1261-0.7024 0.2203-1.0466zm1.9842-6.1747 1.1343 3.4928h-2.3837zm16.776 6.9258c0.0173 0.0082 0.0314 0.0149 0.0487 0.0149v0.2475h-2.8398v-0.2475c0.0632 0 0.1254-0.0154 0.1813-0.0448 0.0771-0.0112 0.1469-0.0517 0.1949-0.1131 0.0682-0.0156 0.113-0.0818 0.113-0.1949 0.04-0.1157 0.0553-0.2386 0.0449-0.36056v-6.6483c0-0.09073-0.0135-0.15632-0.0256-0.21567-0.0101-0.04899-0.0193-0.0938-0.0193-0.14491-0.0283-0.06994-0.0664-0.13555-0.113-0.19491-0.0146-0.04183-0.0732-0.06499-0.1728-0.10432l-0.0221-0.00873c-0.0694 0-0.105-0.01688-0.1325-0.02992-0.0173-0.00821-0.0315-0.01491-0.0488-0.01491v-0.27092h2.8398v0.29236c-0.0631 4e-5 -0.1253 0.01543-0.1812 0.04483-0.07 0.02843-0.1356 0.06648-0.1949 0.11305-0.0683 0.01559-0.1131 0.08186-0.1131 0.19491-0.04 0.11573-0.0553 0.23857-0.0448 0.36058v6.6269c0 0.09076 0.0134 0.15636 0.0256 0.21566 0.01 0.049 0.0192 0.0938 0.0192 0.1449 0.0284 0.0699 0.0665 0.1355 0.1131 0.1949 0.0145 0.0419 0.0732 0.065 0.1728 0.1043l0.0221 0.0088c0.0693 0 0.1049 0.0169 0.1325 0.0299zm0.4226-2.7847 1e-4 2.4e-4 2e-4 2.4e-4c0.1235 0.17206 0.2332 0.3249 0.3684 0.47774 0.0577 0.08364 0.124 0.17445 0.1916 0.2669l4e-4 6.4e-4 8e-4 1e-3 5e-4 6.5e-4c0.0893 0.12227 0.1806 0.24731 0.2569 0.36231 0.1351 0.22082 0.2856 0.43184 0.4503 0.63151 0.1659 0.22199 0.3163 0.45511 0.4502 0.69781 0.0888 0.1286 0.1683 0.2837 0.2445 0.4325 0.0393 0.0766 0.0777 0.1515 0.1161 0.2204l2.9236 0.0448c-0.1578-0.1578-0.304-0.3157-0.4502-0.4736s-0.2924-0.3157-0.4502-0.4736c-0.271-0.31578-0.5185-0.58475-0.6998-0.76601-0.2075-0.24185-0.4013-0.45626-0.5813-0.65548-0.0551-0.06088-0.1088-0.12034-0.1613-0.17873-0.2241-0.24948-0.4502-0.51845-0.6529-0.76599-0.2089-0.24432-0.4041-0.50004-0.5847-0.76599-0.0781-0.12245-0.1744-0.26159-0.2727-0.40374-0.1004-0.14521-0.203-0.29356-0.2906-0.43046l0.1345-0.17932c0.1941-0.26991 0.4483-0.5611 0.7412-0.89669l3e-4 -3.1e-4 3e-3 -0.00347c0.2686-0.35827 0.5624-0.69697 0.8791-1.0135 0.285-0.33043 0.5875-0.64533 0.9063-0.94335 0.2556-0.2352 0.5265-0.45332 0.8108-0.65294h-2.029c-0.0914 0.21713-0.1969 0.42808-0.3158 0.6315-0.1423 0.28037-0.3079 0.54832-0.495 0.80107l-0.0366 0.05524-2e-4 3.5e-4c-0.1709 0.25782-0.3648 0.55051-0.5265 0.84489-0.1142 0.20793-0.2471 0.39557-0.3801 0.58352-0.069 0.09742-0.1381 0.19506-0.2046 0.29551-0.1949 0.29431-0.3898 0.56329-0.5633 0.76599-0.1009 0.13921-0.1881 0.25746-0.2653 0.36203l-2e-4 1.7e-4c-0.06 0.0813-0.1139 0.15434-0.1633 0.22252 0.1579 0.23194 0.3372 0.48143 0.5184 0.72896 0.044 0.06005 0.0852 0.11746 0.125 0.17287zm-58.468 5.5244h63.413v0.8342h-63.413zm12.484-2.5221c0.4038-0.0412 0.795-0.1638 1.1499-0.3606 0.3586-0.2044 0.6488-0.51024 0.8342-0.87902 0.2311-0.4924 0.3394-1.0334 0.3158-1.5768 0.0146-0.41422-0.0516-0.82731-0.1949-1.2162-0.1373-0.3325-0.3632-0.62102-0.6529-0.8342-0.3644-0.22814-0.7706-0.38122-1.1948-0.45024-0.5866-0.10878-1.1833-0.15387-1.7795-0.13449h-0.7446v-2.0758c-0.0096-0.07693-0.0025-0.15502 0.0207-0.229 0.0232-0.07397 0.062-0.1421 0.1138-0.1998 0.1793-0.06863 0.3728-0.09206 0.5633-0.06821h1.0583c0.2711-0.01023 0.5425 0.00478 0.8108 0.04483 0.1784 0.01476 0.3494 0.07738 0.4951 0.18126 0.1416 0.11223 0.2506 0.26028 0.3158 0.4288 0.1031 0.24018 0.1859 0.48858 0.2475 0.7426h0.4502v-1.9374h-6.4514v0.27092c0.0173 0 0.0314 0.0067 0.0487 0.01491 0.0276 0.01304 0.0632 0.02992 0.1325 0.02992l0.0221 0.00872c0.0996 0.03934 0.1583 0.0625 0.1728 0.10433 0.0465 0.05945 0.0846 0.12504 0.1131 0.19491 0 0.05112 0.0092 0.09587 0.0192 0.14488 0.0122 0.05934 0.0256 0.12497 0.0256 0.2157v6.6483c0.0087 0.12197-0.0065 0.24447-0.0448 0.36057 0 0.1131-0.0448 0.1793-0.1131 0.1949-0.048 0.0613-0.1178 0.1017-0.1949 0.1131-0.0559 0.0294-0.1181 0.0448-0.1812 0.0448v0.3157h3.2452c0.1418-0.0079 0.2764-0.0137 0.4061-0.0193 0.3481-0.0149 0.662-0.0284 0.9914-0.0781zm-2.1187-0.6315c-0.0358-0.0305-0.0644-0.0685-0.084-0.1112-0.0195-0.0428-0.0294-0.08933-0.029-0.13635 0-0.04986-0.0087-0.1039-0.0185-0.16429-0.0123-0.0765-0.0263-0.16322-0.0263-0.2645v-3.6272h0.7445c0.653 0 1.15 0.17932 1.4423 0.51846 0.2924 0.33914 0.4288 0.90047 0.4288 1.6684 0.0117 0.40968-0.0335 0.819-0.1345 1.2162-0.0731 0.26005-0.2067 0.49913-0.3898 0.69777-0.1602 0.12472-0.3341 0.23062-0.5184 0.31572-0.2075 0.045-0.4192 0.0679-0.6315 0.0683-0.1196-0.0275-0.2282-0.0382-0.3253-0.0477-0.0612-6e-3 -0.1178-0.0115-0.1698-0.0206-0.0533 0.0019-0.1063-0.0072-0.1559-0.0266-0.0497-0.0194-0.0948-0.0489-0.1326-0.0864zm11.065-1.2845h0.5633v1.9452h-6.2196v-0.2475c0.0625-4e-4 0.124-0.0157 0.1794-0.0448 0.077-0.0114 0.1468-0.0518 0.1949-0.1131 0.0682-0.0156 0.113-0.0818 0.113-0.1949 0.0399-0.1157 0.0552-0.2386 0.0448-0.36057v-6.6483c0-0.09073-0.0134-0.15632-0.0256-0.21567-0.01-0.049-0.0192-0.09379-0.0192-0.14491-0.0284-0.0699-0.0665-0.1355-0.113-0.19491-0.0146-0.04183-0.0733-0.06499-0.1729-0.10433l-0.022-0.00872c-0.068 0-0.1031-0.01676-0.1304-0.02979-0.0174-0.00827-0.0315-0.01504-0.049-0.01504v-0.27092h6.013v1.8828h-0.4503c-0.0618-0.25459-0.1446-0.50362-0.2475-0.74455-0.0652-0.16852-0.1742-0.31656-0.3158-0.42879-0.1459-0.10319-0.3169-0.16513-0.495-0.17932-0.2683-0.04003-0.5398-0.05504-0.8108-0.04483h-0.9473c-0.1793 0-0.2924 0-0.3606 0.06822-0.0447 0.12512-0.0678 0.25695-0.0682 0.38982v2.8651h1.5105c0.287-0.02277 0.5726-0.06051 0.8557-0.11304 0.1288-0.01707 0.2521-0.06304 0.3606-0.13449v1.1266c-0.1148-0.05831-0.2357-0.10342-0.3606-0.13449-0.1413-0.03209-0.2845-0.05487-0.4288-0.06821-0.0821 0-0.1584-0.01213-0.2317-0.02377-0.0676-0.01074-0.1326-0.02106-0.1971-0.02106h-1.495v2.7482c-0.0119 0.16636 0.0033 0.33355 0.0449 0.49507 0.0056 0.05629 0.0249 0.11039 0.0562 0.15759 0.0312 0.0472 0.0735 0.0861 0.1231 0.1133 0.141 0.071 0.2934 0.1166 0.4502 0.1345 0.268 0.0431 0.5398 0.0581 0.8108 0.0448 0.2938 0.0128 0.5881-0.0022 0.8791-0.0448 0.0904 0.0054 0.1809-0.0077 0.266-0.0385 0.0852-0.0309 0.1631-0.0788 0.229-0.1408 0.1378-0.1158 0.2331-0.27425 0.271-0.45024 0.0809-0.26617 0.146-0.53692 0.1949-0.81082zm4.5497 1.7133c-0.0168-3e-4 -0.0307-7e-3 -0.0476-0.015-0.0273-0.013-0.0624-0.0298-0.1303-0.0298l-0.0266-0.0105c-0.0972-0.0383-0.1558-0.0614-0.1684-0.1026-0.0079-0.0261-0.0298-0.0602-0.0556-0.1004-0.0184-0.0286-0.0387-0.0604-0.0574-0.0945 0-0.0511-0.0092-0.0959-0.0192-0.1449-0.0122-0.0593-0.0256-0.1249-0.0256-0.21565v-2.3974h0.879c0.4305-0.00216 0.8602-0.03997 1.2844-0.11305 0.382-0.06065 0.749-0.19291 1.0818-0.38982 0.3253-0.19822 0.5844-0.48855 0.7445-0.8342 0.1999-0.4536 0.2926-0.94713 0.271-1.4423 0.0071-0.45518-0.0771-0.90717-0.2476-1.3293-0.1734-0.30262-0.4133-0.56188-0.7016-0.75819-0.3092-0.18154-0.656-0.28957-1.0136-0.31575-0.3965-0.04642-0.7955-0.0692-1.1947-0.06822h-3.4324v0.27093c0.0173 0 0.0315 0.00669 0.0488 0.0149 0.0275 0.01305 0.0631 0.02992 0.1325 0.02992l0.022 0.00873c0.0997 0.03933 0.1583 0.06249 0.1729 0.10432 0.0465 0.05941 0.0846 0.12501 0.113 0.19491 0 0.05114 0.0092 0.09589 0.0193 0.14492 0.0121 0.05934 0.0256 0.12493 0.0256 0.21566v6.6483c0.0104 0.12204-0.0049 0.24484-0.0449 0.36054 0 0.1131-0.0448 0.1794-0.113 0.1949-0.0481 0.0613-0.1179 0.1018-0.1949 0.1131-0.0559 0.0294-0.1181 0.0448-0.1813 0.0448v0.2476h2.8398zm-0.4723-7.3909c-0.0052-0.06801 0.0105-0.13601 0.0449-0.1949 0.0018-0.02583 0.0088-0.05102 0.0205-0.07411 0.0118-0.02309 0.028-0.04362 0.0477-0.06038 0.0537-0.04703 0.1236-0.07147 0.1949-0.06822 0.0489 0 0.0919-0.00838 0.1408-0.01789 0.0642-0.01249 0.1384-0.02694 0.249-0.02694 0.2116 0.01152 0.4224 0.0343 0.6315 0.06822 0.1922 0.06947 0.3685 0.17685 0.5185 0.31575 0.148 0.17633 0.2694 0.37332 0.3606 0.58473 0.0765 0.29399 0.1145 0.59668 0.113 0.90047 0 0.7426-0.113 1.2844-0.3157 1.6684-0.2028 0.38397-0.5848 0.58473-1.1266 0.58473h-0.8791zm0.4737 7.3909h-0.0014l0.0014-0.0156zm10.344-0.1579c-0.355 0.1968-0.7462 0.3194-1.15 0.3606-0.4701 0.0492-0.9424 0.0739-1.415 0.0741h-3.2453v-0.271c0.0625-3e-4 0.1241-0.0157 0.1794-0.0448 0.077-0.0113 0.1468-0.0518 0.1949-0.113 0.0682-0.0156 0.113-0.0819 0.113-0.195 0.0398-0.1157 0.0551-0.2385 0.0448-0.36053v-6.6698c0-0.09073-0.0134-0.15632-0.0256-0.21567-0.01-0.04899-0.0192-0.0938-0.0192-0.14491-0.0285-0.06987-0.0665-0.13546-0.113-0.19491-0.0126-0.0412-0.0712-0.06429-0.1683-0.10255l-0.0266-0.0105c-0.068 0-0.1031-0.01676-0.1304-0.02979-0.0174-0.00827-0.0315-0.01504-0.049-0.01504v-0.27092h6.432v1.9374h-0.4366c-0.0617-0.25399-0.1445-0.50238-0.2475-0.7426-0.0652-0.16852-0.1742-0.31657-0.3158-0.4288-0.1437-0.10763-0.3158-0.17066-0.495-0.18126-0.2683-0.04006-0.5398-0.05507-0.8108-0.04483h-1.0584c-0.1905-0.02385-0.384-4.2e-4 -0.5633 0.06821-0.0519 0.05763-0.0908 0.12575-0.114 0.19975-0.0232 0.07399-0.0302 0.15211-0.0205 0.22905v2.0758h0.7446c0.5963-0.01935 1.1929 0.02574 1.7795 0.13449 0.4243 0.06902 0.8305 0.2221 1.1948 0.45024 0.2898 0.21318 0.5156 0.5017 0.6529 0.8342 0.1432 0.38894 0.2094 0.80202 0.1949 1.2162 0.0235 0.54337-0.0849 1.0844-0.3157 1.5768-0.1699 0.37178-0.454 0.67972-0.8108 0.87902zm-3.3604-0.3821c0.0195 0.0427 0.0482 0.0807 0.0839 0.1112 0.0787 0.0725 0.1816 0.1128 0.2885 0.113 0.0438 0.0098 0.1032 0.0155 0.1716 0.022 0.096 0.0092 0.2097 0.0201 0.3235 0.0463 0.2123-5e-4 0.424-0.0233 0.6315-0.0683 0.1843-0.0851 0.3582-0.1911 0.5184-0.31572 0.1831-0.19864 0.3167-0.43772 0.3899-0.69777 0.1011-0.39718 0.1464-0.80653 0.1344-1.2162 0-0.76794-0.1364-1.3293-0.4288-1.6684-0.2923-0.33914-0.7893-0.51846-1.4423-0.51846h-0.7445v3.6272c0 0.10126 0.014 0.18792 0.0263 0.2644l1e-4 5.1e-4v2.7e-4c0.0097 0.06011 0.0184 0.11393 0.0184 0.16361-4e-4 0.04702 0.0095 0.09355 0.0291 0.13635zm-30.69 0.7193c-0.4853-0.1993-0.923-0.4988-1.2844-0.87901-0.341-0.39215-0.5806-0.86196-0.6978-1.3682-0.1783-0.59191-0.2618-1.2083-0.2475-1.8263-0.0155-0.64752 0.0679-1.2936 0.2475-1.916 0.1324-0.531 0.3925-1.0216 0.7576-1.4292 0.3652-0.40762 0.8244-0.71988 1.3377-0.90964 0.6299-0.21967 1.2937-0.32656 1.9607-0.31575 0.0737 0 0.1647 0.00999 0.2607 0.02054 0.1074 0.0118 0.2212 0.02429 0.3241 0.02429 0.081 0.00766 0.1573 0.01281 0.2319 0.01785 0.1532 0.01034 0.2994 0.02022 0.4658 0.05036 0.2219 0.02089 0.4409 0.06599 0.653 0.13449 0.2027 0.06042 0.3839 0.12669 0.5633 0.19491v1.7288h-0.5633c-0.0897-0.54184-0.2924-0.94725-0.653-1.1948-0.3689-0.25932-0.8101-0.39573-1.261-0.38982-0.4469-0.00379-0.8855 0.12141-1.263 0.36058-0.2982 0.23436-0.5372 0.53545-0.6978 0.87904-0.1785 0.36869-0.2875 0.7671-0.3216 1.1753-0.0077 0.14886-0.0178 0.29771-0.0278 0.44579-0.0203 0.29975-0.0404 0.59651-0.0404 0.88348 0.0015 0.51269 0.0393 1.0246 0.113 1.532 0.065 0.42343 0.1966 0.83391 0.3898 1.2162 0.2048 0.32868 0.4822 0.60605 0.8109 0.81078 0.3902 0.2232 0.8352 0.3325 1.2844 0.3158 0.2491 0.0105 0.4986-0.0045 0.7446-0.0448 0.1917-0.0137 0.381-0.0517 0.5632-0.1131 0.1531-0.0519 0.3034-0.1118 0.4503-0.1793 0.1579-0.06043 0.2943-0.1267 0.4288-0.19491l0.2514 0.52821c-0.1694 0.0734-0.3347 0.1561-0.4951 0.2475-0.0857 0.028-0.1714 0.0644-0.2605 0.1022-0.1216 0.0517-0.2495 0.106-0.3924 0.1454-0.2625 0.0937-0.5344 0.1591-0.8108 0.1949-0.0685 0.0057-0.1407 0.0128-0.216 0.0203-0.2291 0.0225-0.4872 0.0479-0.7586 0.0479-0.6302 0.0115-1.257-0.0956-1.8477-0.3158zm-9.2386-9.0808c-0.2369-0.22354-0.4854-0.43434-0.7446-0.6315l-8.2699 4.8006-3.9878-2.2765c-0.06736 0.12398-0.1352 0.25383-0.20599 0.3893-0.07054 0.135-0.144 0.27559-0.22281 0.42152l4.3718 2.5241zm-2.5299-1.6665c0.3359 0.14227 0.6615 0.30769 0.9745 0.49507l-7.4806 4.2821-3.4694-1.9842c0.02227-0.02829 0.04455-0.05668 0.06682-0.08507 0.17264-0.22003 0.34527-0.44006 0.5179-0.6127l2.9061 1.6392z" fill="#000"/>
</g>
<defs>
<clipPath id="clip0">
<rect width="86" height="16" fill="#fff"/>
</clipPath>
</defs>
</svg>
