<svg version="1.1" viewBox="-31 0 450.59 512" xmlns="http://www.w3.org/2000/svg">
<path d="m409.59 206.68h-341.17l327.7-94.93c2.5469-0.73828 4.6953-2.4609 5.9766-4.7812 1.2812-2.3242 1.5859-5.0586 0.84766-7.6055l-17.148-59.199c-6.8516-23.645-28.867-40.16-53.539-40.16-5.1992 0-10.379 0.73828-15.402 2.1914l-307.68 89.129c-14.23 4.1211-26.023 13.582-33.215 26.633-7.1875 13.051-8.875 28.078-4.7539 42.305l16.754 57.836v238.25c0 30.688 24.965 55.652 55.648 55.652h120.16c5.5234 0 10-4.4766 10-10s-4.4766-10-10-10h-120.16c-19.66 0-35.652-15.992-35.652-35.652v-136.09h391.63v136.09c2.1e-4 19.66-15.992 35.652-35.652 35.652h-120.16c-5.5195 0-10 4.4766-10 10s4.4805 10 10 10h120.16c30.688 0 55.652-24.965 55.652-55.652v-239.67c0-5.5234-4.4766-10-10-10zm-176.33 93.586 42.488-73.586h55.262l-42.484 73.586zm-78.359 0 42.488-73.586h55.262l-42.484 73.586zm-78.355 0 42.484-73.586h55.266l-42.488 73.586zm37.18-129.46-71.148-68.336 53.309-15.441c0.375 0.54688 0.8125 1.0625 1.3125 1.543l71.148 68.336-53.309 15.441c-0.375-0.54688-0.81641-1.0664-1.3125-1.543zm134-125.84 71.148 68.336-53.309 15.441c-0.375-0.54688-0.8125-1.0664-1.3125-1.543l-71.148-68.336 53.309-15.441c0.375 0.54688 0.8125 1.0625 1.3125 1.543zm-75.266 21.805 71.148 68.332-53.309 15.445c-0.375-0.54687-0.8125-1.0664-1.3125-1.543l-71.148-68.336 53.309-15.441c0.37891 0.54297 0.81641 1.0625 1.3125 1.543zm149.96-45.367c3.2109-0.92969 6.5195-1.4023 9.8359-1.4023 15.824 0 29.938 10.578 34.328 25.727l14.367 49.59-40.121 11.621c-0.3789-0.54688-0.8164-1.0625-1.3164-1.543l-71.145-68.332zm-328.94 106.2c4.6094-8.3711 12.16-14.434 21.262-17.07l5.875-1.7031c0.37891 0.54688 0.81641 1.0664 1.3125 1.543l71.148 68.336-88.293 25.578-14.367-49.59c-2.6367-9.0976-1.5469-18.719 3.0625-27.094zm14.48 99.074h87.973l-42.484 73.586h-45.488zm303.66 73.586 42.484-73.586h45.488v73.586z"/>
<path d="m272.92 405.11c0-3.5742-1.9062-6.875-5-8.6602l-87.855-50.723c-3.0938-1.7852-6.9062-1.7852-10 0s-5 5.0859-5 8.6602v101.45c0 3.5703 1.9062 6.8711 5 8.6562 1.5469 0.89453 3.2734 1.3438 5 1.3438s3.4531-0.44922 5-1.3438l87.855-50.719c3.0938-1.7852 5-5.0859 5-8.6602zm-87.855 33.402v-66.805l57.855 33.402z"/>
<path d="m203.77 492c-5.5078 0-10 4.4922-10 10s4.4922 10 10 10c5.5117 0 10-4.4922 10-10s-4.4883-10-10-10z"/>
</svg>
