<svg version="1.1" viewBox="0 0 47.834 14.725" xmlns="http://www.w3.org/2000/svg">
<path d="m41.684 0.26099h3.004l3.146 14.258h-3.607s-0.358-1.639-0.474-2.137c-0.299 0-1.551-0.0016-2.7297-0.0032-1.0484-0.0014-2.0389-0.0028-2.2493-0.0028-0.151 0.385-0.817 2.143-0.817 2.143h-4.083l5.773-13.074c0.41-0.93 1.104-1.184 2.037-1.184zm-0.242 5.208s-1.229 3.168-1.549 3.987h3.23l-0.901-4.119-0.262-1.23c-0.0983 0.26266-0.2294 0.60356-0.3352 0.87875-0.1105 0.28743-0.1935 0.50318-0.1828 0.48325zm-27.98-5.2079-3.808 9.729-0.406-1.469c-0.751-1.77-2.883-4.312-5.386-5.914l3.482 11.897 4.114-7e-3 6.123-14.239zm5.6909-0.01594-2.431 14.266h3.888l2.433-14.266zm-13.075-0.12207c0.813 0.031 1.468 0.29 1.694 1.159l1.311 6.302c-1.288-3.297-4.392-6.039-9.083-7.177l0.05-0.284zm24.845 2.8569c1.272-0.02 2.194 0.258 2.91 0.546l0.351 0.16501 0.526-3.092c-0.77-0.289-1.977-0.599-3.483-0.599-3.842 0-6.55 1.935-6.571 4.708-0.025 2.049 1.929 3.193 3.405 3.876 1.515 0.70001 2.023 1.145 2.016 1.77-0.012 0.955-1.208 1.393-2.325 1.393-1.557 0-2.384-0.215-3.661-0.747l-0.501-0.228-0.547 3.193c0.91 0.399 2.589 0.742 4.332 0.76 4.087 0 6.743-1.912 6.771-4.875 0.017-1.621-1.02-2.858-3.267-3.873-1.36-0.662-2.192-1.102-2.184-1.77 0-0.593 0.706-1.227 2.228-1.227z" />
</svg>
