<svg version="1.1" viewBox="0 0 49.888 13.135" xmlns="http://www.w3.org/2000/svg">
<path d="m21.961 5.3401c-0.989 0-1.709 0.652-1.709 1.963 0 1.281 0.683 1.964 1.709 1.964 1.027 0 1.709-0.683 1.709-1.964 0-1.312-0.72-1.963-1.709-1.963zm0 3.401c-0.532 0-0.922-0.41-0.922-1.438 0-1.012 0.428-1.439 0.922-1.439 0.51 0 0.922 0.427 0.922 1.439 0 1.027-0.39 1.438-0.922 1.438zm-5.064-0.69003 1.602-4.189h0.929v5.314h-0.809v-3.854h-0.067l-1.529 3.854h-0.479l-1.529-3.763h-0.067v3.763h-0.674v-5.314h0.906l1.679 4.189zm9.396-2.7129c-0.862 0-1.574 0.352-1.911 0.554v3.282h0.778v-2.967c0.232-0.135 0.615-0.27 0.914-0.27 0.385 0 0.676 0.105 0.676 0.697v2.541h0.779v-2.712c0-0.771-0.338-1.123-1.236-1.125zm5.146 1.832c2e-3 -1.225-0.576-1.83-1.512-1.83-1.125 0-1.701 0.823-1.701 1.963 0 1.185 0.517 1.964 1.775 1.964 0.539 0 0.987-0.15 1.325-0.347v-0.567c-0.411 0.245-0.786 0.389-1.19 0.389-0.771 0-1.14-0.396-1.14-1.297h2.443zm-2.428-0.228c0.084-0.748 0.437-1.101 0.894-1.101 0.403 0 0.787 0.313 0.824 1.101zm-20.982-1.602c0.937 0 1.514 0.605 1.513 1.83v0.275h-2.442c0 0.901 0.368 1.297 1.139 1.297 0.404 0 0.779-0.144 1.191-0.389v0.567c-0.337 0.197-0.787 0.347-1.326 0.347-1.258 0-1.776-0.779-1.776-1.964 0-1.14 0.577-1.963 1.701-1.963zm-0.022 0.501c-0.457 0-0.81 0.353-0.892 1.101h1.716c-0.037-0.788-0.419-1.101-0.824-1.101zm26.348-0.376-0.851 2.761h-0.045l-0.959-2.76h-0.824l1.438 3.749c-0.18 0.55496-0.494 0.95896-1.004 0.95896v0.613c0.861 0 1.318-0.539 1.693-1.574l1.355-3.748zm-29.122-1.603-0.765 3.965h-0.053l-1.042-3.965h-0.667l-0.974 3.965h-0.053l-0.839-3.965h-0.84l1.214 5.314h0.81l0.989-3.741h0.053l1.019 3.741h0.81l1.215-5.314zm5.77 1.7549c0.226-0.12 0.608-0.277 1.013-0.277 0.929 0 1.431 0.644 1.431 1.841 0 1.402-0.674 2.085-1.761 2.085-0.398 0-1.012-0.128-1.462-0.367v-5.231l0.779-0.187zm-6e-3 3.005c0.24 0.105 0.501 0.119 0.689 0.119 0.555 0 0.975-0.345 0.975-1.559 0-0.95-0.346-1.258-0.848-1.258-0.298 0-0.516 0.082-0.816 0.247zm35.937 1.3006 1.1716-1.0556 1.0563 1.1723-1.1716 1.0556zm-2.0344-4.8373 1.1691-1.0552 1.0573 1.1714-1.1691 1.0552zm-2.3835-3.0028-1.5622 1.4062 1.4062 1.5622 1.5622-1.4062zm-0.4468 4.069 1.5629-1.4069 1.4063 1.5622-1.563 1.4069zm6.1177-2.3554-0.7783 0.70324 0.7039 0.77911 0.7784-0.70325zm-5.0081 5.0604 1.5615-1.4056 1.4063 1.5622-1.5615 1.4056zm2.724-1.2993 1.1709-1.0579 1.0572 1.1701-1.1709 1.0579zm3.2827-1.4302-0.7799 0.70297 0.703 0.77994 0.7799-0.70297zm-5.3655-3.3988 1.1721-1.055 1.055 1.172-1.1721 1.055zm3.3646-1.2486-0.78 0.70297 0.703 0.77994 0.7799-0.70297zm-1.1344 8.7156-1.527 1.408-2.578-2.869 0.717-0.631-1.805-2.021 0.721-0.632-1.832-2.019 2.859-2.574 0.908 0.994 1.533-1.368 0.906 0.939 0.604-0.541c-0.135-0.078-0.27-0.15-0.407-0.215-0.871-0.426-1.849-0.666-2.879-0.666-3.617 0-6.568 2.95-6.568 6.568 0 3.617 2.951 6.567 6.568 6.567 1.175 0 2.282-0.311 3.237-0.856 0.315-0.178 0.602-0.371 0.864-0.574z" />
</svg>
