<svg version="1.1" viewBox="0 0 1200.3 228.7" xmlns="http://www.w3.org/2000/svg">
<path d="m1188.3 89.7c-0.2 3-0.3 6.3-0.3 10v96.1h12.3v-138.1h-11.2l-44.9 97c-1.23 2.55-2.33 5.101-3.41 7.596-0.23 0.537-0.46 1.072-0.69 1.604-1.3 3-2.4 6.1-3.3 9.2h-0.8c0.3-3.1 0.6-6.2 0.8-9.3s0.3-6.4 0.3-10.1v-95.9h-12.1v138.1h11l44.9-97.3c1.22-2.6969 2.44-5.3181 3.59-7.7977l0.51-1.1023c1.3-2.8001 2.4-5.8 3.3-8.9h0.8c-0.3 2.9-0.6 5.9-0.8 8.9zm-130.2-20.9v127.1h-12.6v-138.1h58.4v11zm-88.2-11h-12.9v138.1h22.2c13 0 23.6-3.7 31.8-11s12.3-18.3 12.3-32.9c0-14.4-3.9-25.2-11.8-32.3-7.8-7.1-18.3-10.7-31.5-10.7h-10.1zm0 128v-66.6h9.6c9.8 0 17.5 2.6 23 7.8 5.5 5.3 8.2 13.7 8.2 25.4 0 11.9-2.9 20.4-9 25.6-6.1 5.2-13.9 7.8-23.6 7.8zm-56.2-55.9h-47.1v66.1h-12.9v-138.2h12.9v61.1h47.1v-61.1h12.9v138.1h-12.9zm-139 42.7c-4.9-10-7.5-24.5-7.9-43.6h62.7c1.1-12.2 1-23-0.3-32.2-1.3-9.3-3.5-17-6.6-23.2s-7.1-10.9-11.8-14c-4.8-3.1-10.2-4.7-16.2-4.7-5.9 0-11.3 1.6-16.2 4.8s-9.1 7.9-12.7 14.1-6.4 13.7-8.4 22.6c-2 8.9001-3 19-3 30.3 0 22.7 3.5 40.3 10.4 52.9s17.7 18.9 32.3 18.9c5.5 0 10.3-0.8 14.3-2.3s7.4-3.3 10.1-5.3c3.1-2.1 5.7-4.8 7.9-7.9l-4.1-10.4c-2 2.9-4.4 5.5-7.1 7.5-2.4 2-5.3 3.8-8.8 5.3s-7.5 2.2-12.1 2.2c-10.1 0-17.6-5-22.5-15zm1-93.1c5.2-9 11.5-13.5 18.8-13.5 6.9 0 12.9 4.3 17.5 12.7s6.4 21.8 5.3 40.2h-50.2c0.5-17.3 3.4-30.4 8.6-39.4zm-47.8 116.4h-83.9l-1.9 32.6h-10.7v-43.5h5.8c4.7-4 8.4-11.2 11-21.4s4.6-22.4 6-36.5c1.5-14.6 2.5-32.6 3-53.9s1-45.7 1.4-73.1h68.5v185h13.4v43.6h-10.7zm-57.1-185c-0.4 25.1-0.9 47.2-1.6 66.1-0.7 19-1.6 35.6-2.7 49.9-1.3 14.9-3.1 27.1-5.3 36.7-2.3 9.6-5.3 16.7-8.9 21.3h61.1v-174zm-151.8 169.2c8.4 11.8 20 17.7 34.8 17.7 6.4 0 11.9-0.9 16.4-2.8s8.6-4.4 12.3-7.5l-4.9-15.9c-2.6 2.3-5.8 4.3-9.6 6.1s-8.4 2.7-13.7 2.7c-8.7 0-15.2-4.7-19.3-14.2s-6.2-23-6.2-40.4c0-17.6 2.5-30.8 7.4-39.4 4.9-8.6999 11.2-13 18.9-13 4.4 0 8.6 1 12.5 3s7.4 4.3001 10.3 6.9l3-20.3c-3.1-2-6.6-3.7-10.4-5.1-3.9-1.4-8.9-2.1-15.1-2.1-8 0-15.1 1.7-21.2 5.1s-11.2 8.2-15.3 14.3-7.2 13.5-9.3 22.3c-2.2 8.7-3.2 18.5-3.2 29.3 0 23.7 4.2 41.5 12.6 53.3zm-75.1 15.8v-68.8l36.5 68.9h23.3l-39.2-73.2 34.3-65h-21.7l-33.2 63.9v-63.9h-21.4v138.1zm-58.1-1.1c5.7-2 10.7-4.7 15.1-8.2l-5.1-16.6c-2.7 2-6.4 4.1-11.1 6.2-4.6 2.2-10 3.2-16 3.2-8.6 0-15-4.1-19.3-12.1s-6.4-19.9-6.4-35.6h57.6v-11.8c0-11.7-0.9-21.6-2.7-29.7-1.9-8.2-4.4-14.8-7.7-19.9-3.3-5.0999-7.4-8.8-12.1-11.1s-9.9-3.4-15.6-3.4c-7.3 0-13.6 2-18.9 5.8s-9.6 9.1-13 16-5.8 15-7.4 24.3c-1.5 9.3-2.3 19.6-2.3 30.7 0 21.3 4.1 37.5 12.3 48.6s19.4 16.6 33.7 16.6c6.9 0 13.2-1 18.9-3zm-37.3-110.3c2.8-7.4 7.4-11.1 14-11.1 3.1 0 5.8 1 7.9 3s3.7 4.8001 4.9 8.5c1.2 3.6 2.1 8 2.6 13s0.8 10.5 0.8 16.3h-35.4c0.7-12.4 2.4-22.3 5.2-29.7zm-59.7 138.5h19.1v-44.6h-11v-120.6h-64.1v11.6c0 9.2-0.1 18.6-0.4 28.4s-0.9 19.4-1.9 28.8-2.4 18.5-4.2 27.4-4.3 17-7.4 24.3h-8.5v44.7h19.2v-27.1h59.2zm-36.7-147.7h23.8v103.1h-36.7c3-7.3 5.3-15.2 6.9-23.9s2.9-17.5 3.8-26.4 1.5-17.7 1.8-26.4c0.3-8.6 0.4-16.6 0.4-23.9zm-54 120.6v-138.1h-21.1v58.7h-31.8v-58.7h-21.4v138.1h21.4v-61.9h31.8v61.9zm-173.7 0 33.4-75.1v0.1h17.5v75.1h21.1v-196h-31.5c-7.6 0-15 1.2-21.9 3.8-6.9 2.5-13 6.4-18.2 11.5s-9.3 11.5-12.3 19.3-4.5 16.8-4.5 27c0 14.7 2.6 26.2 7.9 34.7s12.2 14.9 20.8 19.3l-36.7 80.3zm39.7-178.4h11.2v85.8h-11.2c-4.6 0-8.9-0.7-13-2.1s-7.7-3.7-10.7-7-5.4-7.6-7.1-12.9-2.6-11.9-2.6-19.8c0-8.3 1-15.2 2.9-20.8s4.4-10.1 7.5-13.5 6.7-5.8 10.7-7.4c4-1.5 8.1-2.3 12.3-2.3z" />
</svg>
